# xmcd
#
# Track frame offsets:
#	150
#	12349
#	26801
#	39770
#	43849
#	62339
#	76578
#	82091
#	95517
#	117130
#	125172
#	129396
#	142015
#	157327
#	174346
#	177578
#
# Disc length: 2616 seconds
#
# Revision: 1
# Processed by: cddbd v1.5.2PL0 Copyright (c) Steve Scherf et al.
# Submitted via: audiograbber 1.82.02
#
DISCID=d50a3610
DTITLE=Alison Krauss and Union Station - Live At Winterhawk (Bootleg) - Disc 2
DYEAR=0000
DGENRE=Bluegrass
TTITLE0=You're In My Heart
TTITLE1=It Won't Work This Time
TTITLE2=Instrumental
TTITLE3=Steffey Intro
TTITLE4=But I Know I Love You
TTITLE5=I've Got That Old Feeling
TTITLE6=Intros
TTITLE7=Lonesome Pine
TTITLE8=On The Border Line
TTITLE9=Instrumental
TTITLE10=Band Talk
TTITLE11=Sleep On
TTITLE12=It's Over
TTITLE13=Another Day, Another Dollar
TTITLE14=Band Intros
TTITLE15=Two Highways
EXTD=Dream`Master Strike Again
EXTT0=
EXTT1=
EXTT2=
EXTT3=
EXTT4=
EXTT5=
EXTT6=
EXTT7=
EXTT8=
EXTT9=
EXTT10=
EXTT11=
EXTT12=
EXTT13=
EXTT14=
EXTT15=
PLAYORDER=
